<svg width="60" height="60" viewBox="0 0 60 60" fill="none" xmlns="http://www.w3.org/2000/svg">
<g clip-path="url(#clip0_21_56)">
<path d="M52.0462 39.0525C50.2429 37.8624 48.084 37.3314 45.9343 37.5493C43.7847 37.7672 41.7762 38.7206 40.2484 40.2484C38.7206 41.7762 37.7672 43.7847 37.5493 45.9343C37.3314 48.084 37.8624 50.2429 39.0525 52.0462L52.0462 39.0525ZM54.6975 41.7038L41.7038 54.6975C43.5071 55.8876 45.666 56.4186 47.8157 56.2007C49.9653 55.9828 51.9738 55.0294 53.5016 53.5016C55.0294 51.9738 55.9828 49.9653 56.2007 47.8157C56.4186 45.666 55.8876 43.5071 54.6975 41.7038ZM37.5975 37.5937C38.8119 36.3551 40.2597 35.3694 41.8574 34.6938C43.455 34.0181 45.1708 33.6659 46.9054 33.6574C48.64 33.6489 50.3591 33.9843 51.9633 34.6443C53.5675 35.3043 55.0249 36.2757 56.2514 37.5024C57.4779 38.7291 58.449 40.1867 59.1086 41.791C59.7683 43.3954 60.1034 45.1145 60.0945 46.8492C60.0857 48.5838 59.7331 50.2994 59.0571 51.8969C58.3811 53.4945 57.3952 54.9421 56.1562 56.1562C53.6947 58.6178 50.3561 60.0007 46.875 60.0007C43.3939 60.0007 40.0553 58.6178 37.5937 56.1562C35.1322 53.6947 33.7493 50.3561 33.7493 46.875C33.7493 43.3939 35.1322 40.0553 37.5937 37.5937H37.5975ZM41.25 18.75C41.25 21.7337 40.0647 24.5952 37.955 26.705C35.8452 28.8147 32.9837 30 30 30C27.0163 30 24.1548 28.8147 22.045 26.705C19.9353 24.5952 18.75 21.7337 18.75 18.75C18.75 15.7663 19.9353 12.9048 22.045 10.795C24.1548 8.68526 27.0163 7.5 30 7.5C32.9837 7.5 35.8452 8.68526 37.955 10.795C40.0647 12.9048 41.25 15.7663 41.25 18.75ZM7.5 48.75C7.5 52.5 11.25 52.5 11.25 52.5H30.96C30.3225 50.6932 29.9979 48.7909 30 46.875C29.9975 44.4632 30.5132 42.079 31.5121 39.8838C32.5111 37.6887 33.9699 35.7337 35.79 34.1513C34.0387 33.8925 32.115 33.75 30 33.75C11.25 33.75 7.5 45 7.5 48.75Z" fill="black"/>
</g>
<defs>
<clipPath id="clip0_21_56">
<rect width="60" height="60" fill="white"/>
</clipPath>
</defs>
</svg>
