<svg width="60" height="60" viewBox="0 0 60 60" fill="none" xmlns="http://www.w3.org/2000/svg">
<path d="M41.25 18.75C41.25 21.7337 40.0647 24.5952 37.955 26.705C35.8452 28.8147 32.9837 30 30 30C27.0163 30 24.1548 28.8147 22.045 26.705C19.9353 24.5952 18.75 21.7337 18.75 18.75C18.75 15.7663 19.9353 12.9048 22.045 10.795C24.1548 8.68526 27.0163 7.5 30 7.5C32.9837 7.5 35.8452 8.68526 37.955 10.795C40.0647 12.9048 41.25 15.7663 41.25 18.75ZM7.5 48.75C7.5 52.5 11.25 52.5 11.25 52.5H30.96C30.3225 50.6932 29.9979 48.7909 30 46.875C29.9975 44.4632 30.5132 42.079 31.5121 39.8838C32.5111 37.6887 33.9699 35.7337 35.79 34.1513C34.0387 33.8925 32.115 33.75 30 33.75C11.25 33.75 7.5 45 7.5 48.75ZM44.5725 35.475C45.2475 33.1763 48.5025 33.1763 49.1812 35.475L49.3425 36.03C49.4432 36.3743 49.6198 36.6916 49.8593 36.9586C50.0988 37.2256 50.3951 37.4356 50.7265 37.573C51.0578 37.7104 51.4157 37.7718 51.7739 37.7527C52.1321 37.7336 52.4814 37.6344 52.7963 37.4625L53.3063 37.185C55.41 36.0375 57.7125 38.34 56.5687 40.4437L56.2875 40.9537C56.1163 41.2684 56.0177 41.6174 55.9989 41.9752C55.9802 42.3329 56.0417 42.6903 56.1791 43.0212C56.3165 43.352 56.5262 43.6479 56.7928 43.8871C57.0594 44.1264 57.3763 44.3029 57.72 44.4037L58.2788 44.5725C60.5737 45.2475 60.5737 48.5025 58.2788 49.1812L57.7162 49.3425C57.3726 49.4441 57.0561 49.6213 56.7899 49.8612C56.5238 50.101 56.3147 50.3974 56.178 50.7287C56.0413 51.0599 55.9806 51.4175 56.0002 51.7753C56.0198 52.1331 56.1192 52.4819 56.2912 52.7963L56.5687 53.3063C57.7125 55.41 55.41 57.7125 53.3063 56.5687L52.7963 56.2875C52.4816 56.1163 52.1326 56.0177 51.7748 55.9989C51.4171 55.9802 51.0597 56.0417 50.7288 56.1791C50.398 56.3165 50.1021 56.5262 49.8629 56.7928C49.6236 57.0594 49.4471 57.3763 49.3463 57.72L49.1775 58.2788C48.5025 60.5737 45.2475 60.5737 44.5688 58.2788L44.4075 57.7162C44.3059 57.3726 44.1287 57.0561 43.8888 56.7899C43.649 56.5238 43.3526 56.3147 43.0213 56.178C42.6901 56.0413 42.3325 55.9806 41.9747 56.0002C41.6169 56.0198 41.2681 56.1192 40.9537 56.2912L40.4437 56.5687C38.34 57.7125 36.0375 55.41 37.1812 53.3063L37.4625 52.7963C37.6337 52.4816 37.7323 52.1326 37.7511 51.7748C37.7698 51.4171 37.7083 51.0597 37.5709 50.7288C37.4335 50.398 37.2238 50.1021 36.9572 49.8629C36.6906 49.6236 36.3737 49.4471 36.03 49.3463L35.475 49.1775C33.1763 48.5025 33.1763 45.2475 35.475 44.5688L36.03 44.4075C36.3743 44.3068 36.6916 44.1302 36.9586 43.8907C37.2256 43.6512 37.4356 43.3549 37.573 43.0235C37.7104 42.6922 37.7718 42.3343 37.7527 41.9761C37.7336 41.6179 37.6344 41.2686 37.4625 40.9537L37.185 40.4437C36.0375 38.34 38.34 36.0375 40.4437 37.1812L40.9537 37.4625C41.2684 37.6337 41.6174 37.7323 41.9752 37.7511C42.3329 37.7698 42.6903 37.7083 43.0212 37.5709C43.352 37.4335 43.6479 37.2238 43.8871 36.9572C44.1264 36.6906 44.3029 36.3737 44.4037 36.03L44.5725 35.475ZM52.5 46.875C52.5 46.1363 52.3545 45.4049 52.0718 44.7224C51.7891 44.0399 51.3748 43.4199 50.8525 42.8975C50.3301 42.3752 49.7101 41.9609 49.0276 41.6782C48.3451 41.3955 47.6137 41.25 46.875 41.25C46.1363 41.25 45.4049 41.3955 44.7224 41.6782C44.0399 41.9609 43.4199 42.3752 42.8975 42.8975C42.3752 43.4199 41.9609 44.0399 41.6782 44.7224C41.3955 45.4049 41.25 46.1363 41.25 46.875C41.25 48.3668 41.8426 49.7976 42.8975 50.8525C43.9524 51.9074 45.3832 52.5 46.875 52.5C48.3668 52.5 49.7976 51.9074 50.8525 50.8525C51.9074 49.7976 52.5 48.3668 52.5 46.875Z" fill="black"/>
</svg>
