<svg width="60" height="60" viewBox="0 0 60 60" fill="none" xmlns="http://www.w3.org/2000/svg">
<g clip-path="url(#clip0_21_46)">
<path d="M47.125 60.5C50.606 60.5 53.9444 59.1172 56.4058 56.6558C58.8672 54.1944 60.25 50.856 60.25 47.375C60.25 43.894 58.8672 40.5556 56.4058 38.0942C53.9444 35.6328 50.606 34.25 47.125 34.25C43.644 34.25 40.3056 35.6328 37.8442 38.0942C35.3828 40.5556 34 43.894 34 47.375C34 50.856 35.3828 54.1944 37.8442 56.6558C40.3056 59.1172 43.644 60.5 47.125 60.5V60.5ZM49 41.75V45.5H52.75C53.2473 45.5 53.7242 45.6975 54.0758 46.0492C54.4275 46.4008 54.625 46.8777 54.625 47.375C54.625 47.8723 54.4275 48.3492 54.0758 48.7008C53.7242 49.0525 53.2473 49.25 52.75 49.25H49V53C49 53.4973 48.8025 53.9742 48.4508 54.3258C48.0992 54.6775 47.6223 54.875 47.125 54.875C46.6277 54.875 46.1508 54.6775 45.7992 54.3258C45.4475 53.9742 45.25 53.4973 45.25 53V49.25H41.5C41.0027 49.25 40.5258 49.0525 40.1742 48.7008C39.8225 48.3492 39.625 47.8723 39.625 47.375C39.625 46.8777 39.8225 46.4008 40.1742 46.0492C40.5258 45.6975 41.0027 45.5 41.5 45.5H45.25V41.75C45.25 41.2527 45.4475 40.7758 45.7992 40.4242C46.1508 40.0725 46.6277 39.875 47.125 39.875C47.6223 39.875 48.0992 40.0725 48.4508 40.4242C48.8025 40.7758 49 41.2527 49 41.75ZM41.5 19.25C41.5 22.2337 40.3147 25.0952 38.205 27.205C36.0952 29.3147 33.2337 30.5 30.25 30.5C27.2663 30.5 24.4048 29.3147 22.295 27.205C20.1853 25.0952 19 22.2337 19 19.25C19 16.2663 20.1853 13.4048 22.295 11.295C24.4048 9.18526 27.2663 8 30.25 8C33.2337 8 36.0952 9.18526 38.205 11.295C40.3147 13.4048 41.5 16.2663 41.5 19.25V19.25Z" fill="black"/>
<path d="M7.5 48.75C7.5 52.5 11.25 52.5 11.25 52.5H30.96C30.3225 50.6932 29.9979 48.7909 30 46.875C29.9975 44.4632 30.5132 42.079 31.5121 39.8838C32.5111 37.6887 33.9699 35.7337 35.79 34.1513C34.0388 33.8925 32.115 33.75 30 33.75C11.25 33.75 7.5 45 7.5 48.75Z" fill="black"/>
</g>
<defs>
<clipPath id="clip0_21_46">
<rect width="60" height="60" fill="white"/>
</clipPath>
</defs>
</svg>
